<svg width="239" height="214" viewBox="0 0 239 214" fill="none" xmlns="http://www.w3.org/2000/svg">
<g clip-path="url(#clip0_1437_1002)">
<rect width="188" height="188" rx="32" transform="matrix(0.984808 -0.173648 0.28619 0.958173 0 33)" fill="#17F871"/>
<path d="M210.5 85.5001L226 130L230.728 146.32C236.438 166.029 223.522 186.266 203.241 189.386L84.0867 207.718C66.2814 210.457 49.1925 199.613 44.0881 182.337L20.5 102.5C56.0804 80.3877 103.781 94.7033 118.434 106.758C151.325 76.7929 195.244 78.7837 210.5 85.5001Z" fill="url(#paint0_linear_1437_1002)"/>
<path d="M147.695 144.062L146.869 144.636L147.449 145.459L147.698 145.812C146.733 146.246 145.745 146.646 144.734 147.012C123.178 154.804 99.3526 143.758 91.5136 122.355C83.6757 100.956 94.7819 77.2887 116.335 69.4981C137.89 61.7064 161.716 72.752 169.555 94.1547C175.253 109.713 170.938 126.47 159.876 137.452L159.568 137.015L158.995 136.203L158.179 136.77L147.695 144.062ZM150.69 146.587C153.948 144.901 156.918 142.843 159.567 140.486L197.603 194.462L188.761 200.612L150.69 146.587ZM151.403 143.919L157.178 139.903C155.391 141.387 153.462 142.734 151.403 143.919ZM101.111 118.895C107.026 135.045 124.994 143.365 141.238 137.493C157.486 131.62 165.874 113.768 159.958 97.6149C154.043 81.4652 136.075 73.1452 119.83 79.0173C103.582 84.8904 95.1948 102.742 101.111 118.895Z" fill="url(#paint1_linear_1437_1002)" stroke="url(#paint2_linear_1437_1002)" stroke-width="2"/>
</g>
<defs>
<linearGradient id="paint0_linear_1437_1002" x1="160" y1="194.5" x2="120" y2="34.0001" gradientUnits="userSpaceOnUse">
<stop stop-color="#000B36"/>
<stop offset="1" stop-color="#17F871"/>
</linearGradient>
<linearGradient id="paint1_linear_1437_1002" x1="140" y1="200" x2="144" y2="-13" gradientUnits="userSpaceOnUse">
<stop stop-color="#17F871"/>
<stop offset="1" stop-color="#000B36"/>
</linearGradient>
<linearGradient id="paint2_linear_1437_1002" x1="143.5" y1="66" x2="154" y2="134" gradientUnits="userSpaceOnUse">
<stop stop-color="white"/>
<stop offset="1" stop-color="white" stop-opacity="0"/>
</linearGradient>
<clipPath id="clip0_1437_1002">
<rect width="238.948" height="212.782" fill="white" transform="translate(0 0.354248)"/>
</clipPath>
</defs>
</svg>
