<svg width="239" height="214" viewBox="0 0 239 214" fill="none" xmlns="http://www.w3.org/2000/svg">
<g id="Group 3488">
<rect id="Rectangle 1128" width="188" height="188" rx="32" transform="matrix(0.984808 -0.173648 0.28619 0.958173 0 33)" fill="#17F871"/>
<path id="?" d="M130.951 130.554L130.828 131.038L131.312 131.162L159.354 138.313L159.838 138.437L159.962 137.952L160.603 135.439C161.875 130.656 163.51 126.802 165.495 123.86C167.53 120.928 170.069 118.54 173.115 116.69C176.228 114.843 180.01 113.259 184.467 111.943L184.467 111.943C189.843 110.353 194.688 108.28 198.999 105.721L199.002 105.719C203.34 103.102 207.033 99.7864 210.077 95.7748C213.193 91.7144 215.489 86.7658 216.975 80.9413C219.197 72.2257 218.936 64.1977 216.163 56.8765C213.395 49.5703 208.604 43.3261 201.808 38.1445C195.029 32.9159 186.698 29.0484 176.829 26.5316C167.843 24.2398 159.202 23.7549 150.911 25.0858C142.617 26.3699 135.36 29.7023 129.151 35.0816C122.936 40.4281 118.449 48.0573 115.667 57.9292L115.528 58.4226L116.025 58.5493L146.212 66.2478L146.679 66.367L146.815 65.9045C147.975 61.9658 149.781 58.9268 152.213 56.7547L152.217 56.7519C154.682 54.5129 157.473 53.0821 160.594 52.4492L160.594 52.4493L160.6 52.4478C163.75 51.7635 166.887 51.8204 170.019 52.6189C173.254 53.444 176.014 54.8672 178.31 56.8838L178.313 56.8862C180.656 58.9134 182.296 61.3696 183.241 64.2618C184.181 67.1411 184.237 70.2353 183.39 73.5583C182.591 76.6887 181.173 79.3394 179.138 81.5225C177.096 83.677 174.623 85.4958 171.712 86.9767C168.779 88.4684 165.544 89.8078 162.004 90.9939C157.22 92.5265 152.948 94.5119 149.192 96.953C145.399 99.4181 142.073 103.058 139.206 107.847L139.204 107.851C136.383 112.66 133.85 119.395 131.594 128.036L131.593 128.038L130.951 130.554ZM122.246 173.613L122.25 173.619C124.94 178.077 128.826 180.96 133.886 182.251C137.128 183.077 140.331 183.03 143.485 182.105L143.491 182.103C146.645 181.131 149.407 179.492 151.771 177.188C154.205 174.839 155.875 171.996 156.778 168.668L156.778 168.668L156.781 168.656C157.997 163.677 157.229 158.938 154.49 154.469C151.756 150.006 147.972 147.144 143.152 145.915C138.093 144.625 133.3 145.294 128.804 147.921L128.801 147.922C124.355 150.562 121.513 154.381 120.296 159.357C118.969 164.355 119.621 169.117 122.246 173.613Z" fill="url(#paint0_linear_1437_1068)" stroke="url(#paint1_linear_1437_1068)"/>
<path id="!" d="M78.5812 32.4684L78.4617 31.9687L77.9654 32.1017L53.11 38.7617L52.6133 38.8947L52.7602 39.3875L76.4561 118.885L76.595 119.351L77.0647 119.225L97.5076 113.747L97.9776 113.621L97.8645 113.148L78.5812 32.4684ZM85.9421 150.818L85.9452 150.82C89.4008 152.782 93.0502 153.255 96.8646 152.233C99.3326 151.572 101.449 150.342 103.205 148.547L103.209 148.542C104.945 146.717 106.171 144.593 106.884 142.178C107.627 139.703 107.676 137.184 107.033 134.631L107.033 134.631L107.03 134.619C105.978 130.848 103.693 127.977 100.201 126.026C96.7146 124.078 93.1228 123.585 89.4518 124.569C85.6375 125.591 82.7137 127.825 80.7023 131.253C78.6905 134.681 78.2047 138.296 79.2551 142.067C80.2402 145.893 82.4769 148.817 85.9421 150.818Z" fill="url(#paint2_linear_1437_1068)" stroke="url(#paint3_linear_1437_1068)"/>
</g>
<defs>
<linearGradient id="paint0_linear_1437_1068" x1="177.112" y1="27.1199" x2="137.699" y2="195.658" gradientUnits="userSpaceOnUse">
<stop stop-color="#000B36"/>
<stop offset="1" stop-color="#17F871"/>
</linearGradient>
<linearGradient id="paint1_linear_1437_1068" x1="177.112" y1="27.1199" x2="137.45" y2="182.644" gradientUnits="userSpaceOnUse">
<stop stop-color="white"/>
<stop offset="1" stop-color="white" stop-opacity="0"/>
</linearGradient>
<linearGradient id="paint2_linear_1437_1068" x1="65.6947" y1="35.9073" x2="96.7348" y2="151.751" gradientUnits="userSpaceOnUse">
<stop stop-color="#17F871"/>
<stop offset="1" stop-color="#000B36"/>
</linearGradient>
<linearGradient id="paint3_linear_1437_1068" x1="65.6947" y1="35.9073" x2="96.7348" y2="151.751" gradientUnits="userSpaceOnUse">
<stop stop-color="white"/>
<stop offset="1" stop-color="white" stop-opacity="0"/>
</linearGradient>
</defs>
</svg>
