<svg width="239" height="214" viewBox="0 0 239 214" fill="none" xmlns="http://www.w3.org/2000/svg">
<g id="Group 3457">
<rect id="Rectangle 1128" width="188" height="188" rx="32" transform="matrix(0.984808 -0.173648 0.28619 0.958173 0 33)" fill="#17F871"/>
<g id="Group 3456">
<path id="Union" fill-rule="evenodd" clip-rule="evenodd" d="M191.106 117.843C196.611 111.495 198.908 103.579 196.649 95.7573C192.311 80.7423 172.821 71.765 153.117 75.7058C133.413 79.6466 120.956 95.0134 125.293 110.028C129.53 124.692 148.216 133.597 167.441 130.336L167.435 130.358L168.299 130.182C168.474 130.149 168.65 130.115 168.825 130.08C169.115 130.022 169.404 129.961 169.691 129.898L201.04 123.51L191.106 117.843Z" fill="#000B36"/>
<g id="Union_2">
<mask id="path-3-inside-1_1437_932" fill="white">
<path fill-rule="evenodd" clip-rule="evenodd" d="M108.172 145.965C137.282 140.098 155.673 117.377 149.259 95.1754C142.837 72.9477 113.985 59.6579 84.8159 65.4917C55.6465 71.3256 37.2055 94.074 43.6269 116.302C46.852 127.466 55.7354 136.375 67.4754 141.739L58.322 155.746L107.473 146.102C107.672 146.064 107.871 146.025 108.07 145.985C108.099 145.979 108.129 145.973 108.158 145.968L108.172 145.965L108.172 145.965Z"/>
</mask>
<path fill-rule="evenodd" clip-rule="evenodd" d="M108.172 145.965C137.282 140.098 155.673 117.377 149.259 95.1754C142.837 72.9477 113.985 59.6579 84.8159 65.4917C55.6465 71.3256 37.2055 94.074 43.6269 116.302C46.852 127.466 55.7354 136.375 67.4754 141.739L58.322 155.746L107.473 146.102C107.672 146.064 107.871 146.025 108.07 145.985C108.099 145.979 108.129 145.973 108.158 145.968L108.172 145.965L108.172 145.965Z" fill="url(#paint0_linear_1437_932)"/>
<path d="M108.172 145.965L107.614 144.044L104.288 144.714L106.727 147.241L108.172 145.965ZM67.4754 141.739L69.2239 142.869L70.4511 140.991L68.235 139.979L67.4754 141.739ZM58.322 155.746L56.5735 154.616L53.9473 158.635L58.8699 157.669L58.322 155.746ZM107.473 146.102L106.934 144.177L106.925 144.179L107.473 146.102ZM108.158 145.968L107.611 144.045L107.601 144.047L108.158 145.968ZM108.172 145.965L108.719 147.888L112.071 147.231L109.617 144.689L108.172 145.965ZM147.298 95.5676C153.284 116.289 136.129 138.297 107.614 144.044L108.73 147.886C138.435 141.899 158.061 118.466 151.22 94.7831L147.298 95.5676ZM85.371 67.4132C113.945 61.6985 141.305 74.8225 147.298 95.5676L151.22 94.7831C144.37 71.0728 114.026 57.6173 84.2608 63.5703L85.371 67.4132ZM45.588 115.909C39.595 95.1644 56.7975 73.1279 85.371 67.4132L84.2608 63.5703C54.4955 69.5234 34.8161 92.9837 41.6657 116.694L45.588 115.909ZM68.235 139.979C56.9529 134.824 48.6068 126.359 45.588 115.909L41.6657 116.694C45.0971 128.572 54.5178 137.926 66.7158 143.499L68.235 139.979ZM60.0705 156.876L69.2239 142.869L65.7268 140.609L56.5735 154.616L60.0705 156.876ZM106.925 144.179L57.7741 153.823L58.8699 157.669L108.02 148.025L106.925 144.179ZM107.515 144.064C107.321 144.103 107.128 144.14 106.934 144.177L108.011 148.027C108.215 147.988 108.42 147.948 108.625 147.907L107.515 144.064ZM107.601 144.047C107.572 144.052 107.543 144.058 107.515 144.064L108.625 147.907C108.655 147.901 108.686 147.895 108.716 147.888L107.601 144.047ZM107.625 144.042L107.611 144.045L108.706 147.89L108.719 147.888L107.625 144.042ZM106.727 147.241L106.727 147.241L109.617 144.689L109.617 144.689L106.727 147.241Z" fill="url(#paint1_linear_1437_932)" mask="url(#path-3-inside-1_1437_932)"/>
</g>
<g id="Ellipse 119" filter="url(#filter0_i_1437_932)">
<circle cx="7.97954" cy="7.97954" r="7.97954" transform="matrix(0.980581 -0.196116 0.27754 0.960714 62.7764 103.797)" fill="white"/>
</g>
<g id="Ellipse 120" filter="url(#filter1_i_1437_932)">
<circle cx="7.97954" cy="7.97954" r="7.97954" transform="matrix(0.980581 -0.196116 0.27754 0.960714 86.248 99.1028)" fill="white"/>
</g>
<g id="Ellipse 121" filter="url(#filter2_i_1437_932)">
<circle cx="7.97954" cy="7.97954" r="7.97954" transform="matrix(0.980581 -0.196116 0.27754 0.960714 109.721 94.4077)" fill="white"/>
</g>
</g>
</g>
<defs>
<filter id="filter0_i_1437_932" x="64.6816" y="102.072" width="16.2676" height="19.3875" filterUnits="userSpaceOnUse" color-interpolation-filters="sRGB">
<feFlood flood-opacity="0" result="BackgroundImageFix"/>
<feBlend mode="normal" in="SourceGraphic" in2="BackgroundImageFix" result="shape"/>
<feColorMatrix in="SourceAlpha" type="matrix" values="0 0 0 0 0 0 0 0 0 0 0 0 0 0 0 0 0 0 127 0" result="hardAlpha"/>
<feOffset dy="7.47233"/>
<feGaussianBlur stdDeviation="1.86808"/>
<feComposite in2="hardAlpha" operator="arithmetic" k2="-1" k3="1"/>
<feColorMatrix type="matrix" values="0 0 0 0 0.816667 0 0 0 0 0.520625 0 0 0 0 0.520625 0 0 0 0.25 0"/>
<feBlend mode="normal" in2="shape" result="effect1_innerShadow_1437_932"/>
</filter>
<filter id="filter1_i_1437_932" x="88.1533" y="97.3782" width="16.2676" height="19.3875" filterUnits="userSpaceOnUse" color-interpolation-filters="sRGB">
<feFlood flood-opacity="0" result="BackgroundImageFix"/>
<feBlend mode="normal" in="SourceGraphic" in2="BackgroundImageFix" result="shape"/>
<feColorMatrix in="SourceAlpha" type="matrix" values="0 0 0 0 0 0 0 0 0 0 0 0 0 0 0 0 0 0 127 0" result="hardAlpha"/>
<feOffset dy="7.47233"/>
<feGaussianBlur stdDeviation="1.86808"/>
<feComposite in2="hardAlpha" operator="arithmetic" k2="-1" k3="1"/>
<feColorMatrix type="matrix" values="0 0 0 0 0.816667 0 0 0 0 0.520625 0 0 0 0 0.520625 0 0 0 0.25 0"/>
<feBlend mode="normal" in2="shape" result="effect1_innerShadow_1437_932"/>
</filter>
<filter id="filter2_i_1437_932" x="111.626" y="92.6831" width="16.2676" height="19.3875" filterUnits="userSpaceOnUse" color-interpolation-filters="sRGB">
<feFlood flood-opacity="0" result="BackgroundImageFix"/>
<feBlend mode="normal" in="SourceGraphic" in2="BackgroundImageFix" result="shape"/>
<feColorMatrix in="SourceAlpha" type="matrix" values="0 0 0 0 0 0 0 0 0 0 0 0 0 0 0 0 0 0 127 0" result="hardAlpha"/>
<feOffset dy="7.47233"/>
<feGaussianBlur stdDeviation="1.86808"/>
<feComposite in2="hardAlpha" operator="arithmetic" k2="-1" k3="1"/>
<feColorMatrix type="matrix" values="0 0 0 0 0.816667 0 0 0 0 0.520625 0 0 0 0 0.520625 0 0 0 0.25 0"/>
<feBlend mode="normal" in2="shape" result="effect1_innerShadow_1437_932"/>
</filter>
<linearGradient id="paint0_linear_1437_932" x1="84.8159" y1="65.4917" x2="112.369" y2="147.702" gradientUnits="userSpaceOnUse">
<stop stop-color="#000B36"/>
<stop offset="1" stop-color="#17F871"/>
</linearGradient>
<linearGradient id="paint1_linear_1437_932" x1="84.8159" y1="65.4917" x2="118.664" y2="146.844" gradientUnits="userSpaceOnUse">
<stop stop-color="white"/>
<stop offset="1" stop-color="white" stop-opacity="0"/>
</linearGradient>
</defs>
</svg>
