<svg width="24" height="24" viewBox="0 0 24 24" fill="none" xmlns="http://www.w3.org/2000/svg">
<g id="social icons twitter">
<path id="Vector" d="M22.3673 6.37728C21.6007 6.71806 20.7756 6.94793 19.9099 7.0508C20.7938 6.52163 21.4716 5.68343 21.7912 4.68351C20.9644 5.17416 20.0492 5.53018 19.0742 5.72238C18.294 4.89095 17.1819 4.37109 15.9513 4.37109C13.5887 4.37109 11.6731 6.28668 11.6731 8.64974C11.6731 8.98459 11.7108 9.31098 11.784 9.62467C8.22802 9.44603 5.07504 7.74295 2.96473 5.15426C2.59643 5.78588 2.38561 6.52079 2.38561 7.30565C2.38561 8.78986 3.14083 10.0997 4.28891 10.8667C3.58787 10.8443 2.9279 10.6517 2.35089 10.3312C2.35047 10.349 2.35047 10.3672 2.35047 10.3854C2.35047 12.4581 3.82536 14.187 5.78285 14.5807C5.42387 14.678 5.04583 14.7305 4.65552 14.7305C4.3795 14.7305 4.11153 14.7038 3.85034 14.6535C4.39517 16.3532 5.97505 17.5906 7.84702 17.6248C6.38271 18.7725 4.53825 19.4566 2.53335 19.4566C2.18833 19.4566 1.84755 19.4363 1.5127 19.3965C3.40669 20.6111 5.65543 21.3189 8.07139 21.3189C15.9416 21.3189 20.2447 14.7995 20.2447 9.14546C20.2447 8.96004 20.2409 8.77504 20.2329 8.59132C21.0685 7.98933 21.7941 7.23537 22.3673 6.37728Z" fill="#000B36"/>
</g>
</svg>
